# xmcd CD database file generated by Grip 3.2.0
# 
# Track frame offsets:
#       150
#       16565
#       26952
#       41024
#       56577
#       64360
#       78116
#       94053
#       103793
#       120500
#       130418
#       142020
#       161463
# 
# Disc length: 2303 seconds
# 
# Revision: 1
# Processed by: cddbd v1.5.2PL0 Copyright (c) Steve Scherf et al.
# Submitted via: Grip 3.2.0
# 
DISCID=ab08fd0d
DTITLE=Don Cavalli - Cryland
DYEAR=2007
DGENRE=Blues
TTITLE0=Gloom Uprising
TTITLE1=I'm Going To A River
TTITLE2=Aggression
TTITLE3=Here Sat I (Off Jumps The Don)
TTITLE4=Vitamin A
TTITLE5=Vengeance
TTITLE6=Wandering Wanderer
TTITLE7=Cryland
TTITLE8=New Hollywood Babylon
TTITLE9=Wonder Chairman
TTITLE10=Cherie de Mon Coeur
TTITLE11=Casual Worker
TTITLE12=Summertime
EXTD=YEAR: 2007
EXTT0=
EXTT1=
EXTT2=
EXTT3=
EXTT4=
EXTT5=
EXTT6=
EXTT7=
EXTT8=
EXTT9=
EXTT10=
EXTT11=
EXTT12=
PLAYORDER=
